# xmcd
#
# Track frame offsets:
#	150
#	20097
#	37829
#	53944
#	67726
#	85600
#	105193
#	121777
#	136308
#	154034
#	173981
#	191713
#	207828
#	221610
#	239484
#	259077
#	275661
#	290192
#
# Disc length: 4105
#
# Revision: 1
# Processed by: cddbd v1.5.2PL0 Copyright (c) Steve Scherf et al.
# Submitted via: kJams Pro (development) 1.0patch45.9
#
DISCID=02100712
DTITLE=Various Artist - NSC 3019
DYEAR=1995
DGENRE=Country
TTITLE0=Tim McGraw and Faith Hill - Angry All The Time
TTITLE1=Alan Jackson - Where I Come From
TTITLE2=Kenny Chesney - The Tin Man
TTITLE3=Gary Allan - Man Of Me
TTITLE4=Jessica Andrews - Helplessly Hopelessly
TTITLE5=Jeff Carson - Real Life (I Never Was Th e Same Again)
TTITLE6=Trace Adkins - I'm Tryin'
TTITLE7=Mark McGruinn - That's A Plan
TTITLE8=Tim Rushlow - Crazy Life
TTITLE9=Tim McGraw and Faith Hill - Vocals - Angry All The Time
TTITLE10=Alan Jackson - Vocals - Where I Come From
TTITLE11=Kenny Chesney - Vocals - The Tin Man
TTITLE12=Gary Allan - Vocals - Man Of Me
TTITLE13=Jessica Andrews - Vocals - Helplessly Hopelessly
TTITLE14=Jeff Carson - Vocals - Real Life (I Never Was The Same Again)
TTITLE15=Trace Adkins - Vocals - I'm Tryin'
TTITLE16=Mark Gruinn - Vocals - That's A Plan
TTITLE17=Tim Rushlow - Vocals - Crazy Life
EXTD=
EXTT0=
EXTT1=
EXTT2=
EXTT3=
EXTT4=
EXTT5=
EXTT6=
EXTT7=
EXTT8=
EXTT9=
EXTT10=
EXTT11=
EXTT12=
EXTT13=
EXTT14=
EXTT15=
EXTT16=
EXTT17=
PLAYORDER=
